<svg width="105" height="41" viewBox="0 0 105 41" fill="none" xmlns="http://www.w3.org/2000/svg">
<path d="M1.41406 36.2881V4.83252H96.4602V39.7826H1.41406V36.2881Z" fill="#F2F2F2" stroke="#AA58B1"/>
<path d="M5.30566 32.3707V0.915039H99.8032V35.8651H5.30566V32.3707Z" fill="#AA58B1" stroke="#AA58B1"/>
<path d="M16.3122 23.6891C17.2692 23.6891 17.9732 23.3041 18.5452 22.6441L18.0282 22.0831C17.5662 22.6001 17.0602 22.8861 16.4002 22.8861C15.0142 22.8861 14.1122 21.7421 14.1122 19.9271C14.1122 18.1341 15.0142 17.0121 16.4002 17.0121C17.0052 17.0121 17.4782 17.2761 17.8522 17.6721L18.3692 17.0891C17.9512 16.6271 17.2582 16.2091 16.4002 16.2091C14.5192 16.2091 13.1662 17.6281 13.1662 19.9491C13.1662 22.3031 14.5302 23.6891 16.3122 23.6891ZM21.5989 19.5201C21.8519 18.7171 22.0829 17.9251 22.3139 17.0891H22.3579C22.5779 17.9251 22.8199 18.7171 23.0729 19.5201L23.4139 20.6201H21.2579L21.5989 19.5201ZM19.3989 23.5571H20.3339L21.0269 21.3571H23.6449L24.3269 23.5571H25.2949L22.8639 16.3411H21.8299L19.3989 23.5571ZM26.5446 23.5571H27.4246V19.7841C27.4246 19.0361 27.3366 18.2661 27.3036 17.5291H27.3256L28.0186 19.0251L30.3286 23.5571H31.3406V16.3411H30.4606V20.0811C30.4606 20.8401 30.5486 21.6541 30.5816 22.3691H30.5596L29.8666 20.8731L27.5566 16.3411H26.5446V23.5571ZM36.0993 23.6891C37.0563 23.6891 37.7603 23.3041 38.3323 22.6441L37.8153 22.0831C37.3533 22.6001 36.8473 22.8861 36.1873 22.8861C34.8013 22.8861 33.8993 21.7421 33.8993 19.9271C33.8993 18.1341 34.8013 17.0121 36.1873 17.0121C36.7923 17.0121 37.2653 17.2761 37.6393 17.6721L38.1563 17.0891C37.7383 16.6271 37.0453 16.2091 36.1873 16.2091C34.3063 16.2091 32.9533 17.6281 32.9533 19.9491C32.9533 22.3031 34.3173 23.6891 36.0993 23.6891ZM40.088 23.5571H44.664V22.7761H41.012V20.1581H44.004V19.3771H41.012V17.1111H44.554V16.3411H40.088V23.5571ZM46.9037 23.5571H51.3807V22.7761H47.8057V16.3411H46.9037V23.5571Z" fill="white"/>
</svg>
