<svg width="9" height="11" viewBox="0 0 9 11" fill="none" xmlns="http://www.w3.org/2000/svg">
<path d="M8.10054 2.05867H7.20517V1.16329C7.20517 0.859009 6.97222 0.626068 6.66794 0.626068H0.937525C0.63324 0.626068 0.400299 0.859009 0.400299 1.16329V8.68446C0.400299 8.98875 0.63324 9.22169 0.937525 9.22169H1.8329V10.1171C1.8329 10.4213 2.06584 10.6543 2.37013 10.6543H8.10054C8.40483 10.6543 8.63777 10.4213 8.63777 10.1171V2.5959C8.63777 2.29161 8.40483 2.05867 8.10054 2.05867ZM0.937525 8.86354C0.829801 8.86354 0.75845 8.79219 0.75845 8.68446V1.16329C0.75845 1.05557 0.829801 0.984219 0.937525 0.984219H6.66794C6.77566 0.984219 6.84702 1.05557 6.84702 1.16329V2.05867H2.37013C2.06584 2.05867 1.8329 2.29161 1.8329 2.5959V8.86354H0.937525ZM8.27962 10.1171C8.27962 10.2248 8.20827 10.2961 8.10054 10.2961H2.37013C2.2624 10.2961 2.19105 10.2248 2.19105 10.1171V2.5959C2.19105 2.48817 2.2624 2.41682 2.37013 2.41682H8.10054C8.20827 2.41682 8.27962 2.48817 8.27962 2.5959V10.1171Z" fill="black"/>
</svg>
