<svg width="104" height="41" viewBox="0 0 104 41" fill="none" xmlns="http://www.w3.org/2000/svg">
<path d="M0.953003 36.2881V4.83252H95.9991V39.7826H0.953003V36.2881Z" fill="#F2F2F2" stroke="#65B042"/>
<path d="M4.8446 32.3707V0.915039H99.3422V35.8651H4.8446V32.3707Z" fill="#65B042" stroke="#65B042"/>
<path d="M15.8511 23.6891C16.8081 23.6891 17.5121 23.3041 18.0841 22.6441L17.5671 22.0831C17.1051 22.6001 16.5991 22.8861 15.9391 22.8861C14.5531 22.8861 13.6511 21.7421 13.6511 19.9271C13.6511 18.1341 14.5531 17.0121 15.9391 17.0121C16.5441 17.0121 17.0171 17.2761 17.3911 17.6721L17.9081 17.0891C17.4901 16.6271 16.7971 16.2091 15.9391 16.2091C14.0581 16.2091 12.7051 17.6281 12.7051 19.9491C12.7051 22.3031 14.0691 23.6891 15.8511 23.6891ZM19.6858 23.5571H20.5988V20.5101H21.8858L23.6238 23.5571H24.6688L22.8318 20.4111C23.8108 20.1581 24.4488 19.4871 24.4488 18.3651C24.4488 16.8691 23.3928 16.3411 21.9298 16.3411H19.6858V23.5571ZM20.5988 19.7621V17.0781H21.7978C22.9198 17.0781 23.5358 17.4191 23.5358 18.3651C23.5358 19.3001 22.9198 19.7621 21.7978 19.7621H20.5988ZM26.4355 23.5571H31.0115V22.7761H27.3595V20.1581H30.3515V19.3771H27.3595V17.1111H30.9015V16.3411H26.4355V23.5571ZM34.3292 19.5201C34.5822 18.7171 34.8132 17.9251 35.0442 17.0891H35.0882C35.3082 17.9251 35.5502 18.7171 35.8032 19.5201L36.1442 20.6201H33.9882L34.3292 19.5201ZM32.1292 23.5571H33.0642L33.7572 21.3571H36.3752L37.0572 23.5571H38.0252L35.5942 16.3411H34.5602L32.1292 23.5571ZM41.2109 23.5571H42.1349V17.1111H44.5109V16.3411H38.8349V17.1111H41.2109V23.5571ZM46.2226 23.5571H50.7986V22.7761H47.1466V20.1581H50.1386V19.3771H47.1466V17.1111H50.6886V16.3411H46.2226V23.5571ZM60.932 23.5571H61.999L64.287 16.3411H63.352L62.197 20.2351C61.955 21.0931 61.768 21.7751 61.504 22.6221H61.46C61.196 21.7751 61.02 21.0931 60.767 20.2351L59.601 16.3411H58.633L60.932 23.5571ZM67.3077 19.5201C67.5607 18.7171 67.7917 17.9251 68.0227 17.0891H68.0667C68.2867 17.9251 68.5287 18.7171 68.7817 19.5201L69.1227 20.6201H66.9667L67.3077 19.5201ZM65.1077 23.5571H66.0427L66.7357 21.3571H69.3537L70.0357 23.5571H71.0037L68.5727 16.3411H67.5387L65.1077 23.5571ZM74.6624 23.6891C76.0704 23.6891 77.0824 22.8971 77.0824 20.8291V16.3411H76.1914V20.8511C76.1914 22.3471 75.5314 22.8861 74.6624 22.8861C73.7934 22.8861 73.1444 22.3471 73.1444 20.8511V16.3411H72.2204V20.8291C72.2204 22.8971 73.2434 23.6891 74.6624 23.6891ZM79.4211 23.5571H83.8981V22.7761H80.3231V16.3411H79.4211V23.5571ZM87.3808 23.5571H88.3048V17.1111H90.6808V16.3411H85.0048V17.1111H87.3808V23.5571Z" fill="white"/>
</svg>
