<svg width="21" height="21" viewBox="0 0 21 21" fill="none" xmlns="http://www.w3.org/2000/svg">
<rect x="1.34741" y="3.79993" width="16.2826" height="16.2826" stroke="#AA58B1"/>
<rect x="3.25073" y="0.750122" width="17.2826" height="17.2826" fill="#AA58B1"/>
<rect x="11.8334" y="11.0869" width="1.13025" height="1.13025" transform="rotate(-180 11.8334 11.0869)" fill="white"/>
<rect x="11.8334" y="9.95667" width="1.13025" height="1.13025" transform="rotate(-180 11.8334 9.95667)" fill="white"/>
<rect x="12.9634" y="8.82629" width="1.13025" height="1.13025" transform="rotate(-180 12.9634 8.82629)" fill="white"/>
<rect x="11.8334" y="8.82629" width="1.13025" height="1.13025" transform="rotate(-180 11.8334 8.82629)" fill="white"/>
<rect x="10.703" y="9.95667" width="1.13025" height="1.13025" transform="rotate(-180 10.703 9.95667)" fill="white"/>
<rect x="12.9634" y="7.69617" width="1.13025" height="1.13025" transform="rotate(-180 12.9634 7.69617)" fill="white"/>
<rect x="14.0938" y="7.69617" width="1.13025" height="1.13025" transform="rotate(-180 14.0938 7.69617)" fill="white"/>
<rect x="14.0938" y="6.56592" width="1.13025" height="1.13025" transform="rotate(-180 14.0938 6.56592)" fill="white"/>
<rect x="12.9634" y="11.0869" width="1.13025" height="1.13025" transform="rotate(-180 12.9634 11.0869)" fill="white"/>
<rect x="12.9634" y="12.217" width="1.13025" height="1.13025" transform="rotate(-180 12.9634 12.217)" fill="white"/>
<rect x="14.0938" y="12.217" width="1.13025" height="1.13025" transform="rotate(-180 14.0938 12.217)" fill="white"/>
<rect x="14.0934" y="13.3473" width="1.13025" height="1.13025" transform="rotate(-180 14.0934 13.3473)" fill="white"/>
</svg>
