<svg width="78" height="14" viewBox="0 0 78 14" fill="none" xmlns="http://www.w3.org/2000/svg">
<path d="M10.8406 10.2198H9.2465C8.0594 10.2198 7.04188 9.43764 6.66879 8.34269L7.56759 8.02984C7.80502 8.74243 8.4664 9.26384 9.2465 9.26384H10.8406C11.4002 9.26384 11.8751 8.77719 11.8751 8.18626C11.8751 7.50843 11.1798 7.33463 10.4506 7.23035L8.97516 7.0044C7.9746 6.86536 6.60095 6.53514 6.60095 5.09257C6.60095 3.98024 7.4828 3.05908 8.56815 3.05908H10.1623C11.3494 3.05908 12.3669 3.84119 12.723 4.93615L11.8412 5.249C11.5868 4.53641 10.9424 4.03238 10.1623 4.03238H8.56815C8.00852 4.03238 7.53368 4.50164 7.53368 5.09257C7.53368 5.83993 8.43248 5.97897 9.14475 6.08325L10.5523 6.27443C11.6546 6.43086 12.8078 6.88274 12.8078 8.18626C12.8078 9.31598 11.9429 10.2198 10.8406 10.2198Z" fill="#252429"/>
<path d="M20.9321 7.03912C20.9321 8.79453 19.5415 10.2197 17.8286 10.2197C17.0146 10.2197 16.2345 9.90686 15.6579 9.31593V13.1744H14.7252V3.07642H15.6579V3.98019C16.2345 3.40664 17.0146 3.07642 17.8286 3.07642C19.5415 3.07642 20.9321 4.51898 20.9321 6.27439V7.03912ZM19.9994 6.27439C19.9994 5.04039 19.0158 4.04971 17.8286 4.04971C16.6415 4.04971 15.6579 5.04039 15.6579 6.27439V7.03912C15.6579 8.25574 16.6415 9.26379 17.8286 9.26379C19.0158 9.26379 19.9994 8.25574 19.9994 7.03912V6.27439Z" fill="#252429"/>
<path d="M27.5619 10.2195V9.54171C27.0701 9.97622 26.4256 10.2195 25.7812 10.2195H24.2719C23.1865 10.2195 22.3047 9.29839 22.3047 8.20343C22.3047 7.09109 23.2035 6.16994 24.2719 6.16994H26.5443C27.0192 6.16994 27.5788 6.10042 27.5788 5.50949C27.5788 4.44929 26.68 4.04954 25.7982 4.04954H25.052C24.2888 4.04954 23.6105 4.53619 23.3561 5.26616L22.4743 4.95332C22.8643 3.84098 23.8988 3.09363 25.052 3.09363H25.7982C27.2227 3.09363 28.5115 3.89312 28.5115 5.50949V10.2369H27.5619V10.2195ZM26.5274 7.12585H24.2549C23.6953 7.12585 23.2205 7.6125 23.2205 8.20343C23.2205 8.77698 23.6953 9.26362 24.2549 9.26362H25.7642C26.7478 9.26362 27.5449 8.42937 27.5449 7.42132V6.95205C27.2227 7.09109 26.8835 7.12585 26.5274 7.12585Z" fill="#252429"/>
<path d="M35.2423 5.31847C34.8861 4.55374 34.123 4.04971 33.292 4.04971C32.1049 4.04971 31.1213 5.05777 31.1213 6.27439V7.03912C31.1213 8.25574 32.1049 9.26379 33.292 9.26379C34.123 9.26379 34.8861 8.77715 35.2423 7.97765L36.0902 8.39478C35.5814 9.50712 34.4961 10.2023 33.2751 10.2023C31.5622 10.2023 30.1716 8.77715 30.1716 7.02174V6.25701C30.1716 4.5016 31.5622 3.07642 33.2751 3.07642C34.4791 3.07642 35.5645 3.77163 36.0902 4.88396L35.2423 5.31847Z" fill="#252429"/>
<path d="M43.5182 7.12602H38.2611C38.312 8.32526 39.2616 9.26379 40.4148 9.26379C41.2458 9.26379 42.0089 8.77715 42.3651 7.97765L43.213 8.39478C42.7042 9.50712 41.6189 10.2023 40.3979 10.2023C38.685 10.2023 37.2944 8.77715 37.2944 7.02174V6.25701C37.2944 4.5016 38.685 3.07642 40.3979 3.07642C42.1107 3.07642 43.5013 4.5016 43.5013 6.25701V7.12602H43.5182ZM40.4148 4.04971C39.2616 4.04971 38.295 4.98825 38.2611 6.1701H42.5855C42.5177 5.00563 41.568 4.04971 40.4148 4.04971Z" fill="#252429"/>
<path d="M52.3706 10.2196V5.31838C52.3706 4.51889 51.7601 4.04962 51.0309 4.04962C50.3695 4.04962 49.8099 4.62317 49.8099 5.31838V10.237H48.8602V5.31838C48.8602 4.51889 48.2497 4.04962 47.5204 4.04962C46.8421 4.04962 46.2825 4.62317 46.2825 5.31838V10.237H45.3497V3.11108H46.2825V3.51083C46.7064 3.19799 47.1134 3.11108 47.6222 3.11108C48.2666 3.11108 48.911 3.42393 49.3181 3.94534C49.7759 3.33703 50.4034 3.11108 51.1157 3.11108C52.3197 3.11108 53.2864 4.10176 53.2864 5.33576V10.2544H52.3706V10.2196Z" fill="#252429"/>
<path d="M61.2249 7.12602H55.9677C56.0186 8.32526 56.9683 9.26379 58.1215 9.26379C58.9525 9.26379 59.7156 8.77715 60.0717 7.97765L60.9197 8.39478C60.4109 9.50712 59.3255 10.2023 58.1045 10.2023C56.3917 10.2023 55.0011 8.77715 55.0011 7.02174V6.25701C55.0011 4.5016 56.3917 3.07642 58.1045 3.07642C59.8173 3.07642 61.208 4.5016 61.208 6.25701V7.12602H61.2249ZM58.1215 4.04971C56.9683 4.04971 56.0017 4.98825 55.9677 6.1701H60.2922C60.2244 5.00563 59.2747 4.04971 58.1215 4.04971Z" fill="#252429"/>
<path d="M66.9413 10.2198H65.3472C64.1601 10.2198 63.1426 9.43764 62.7695 8.34269L63.6683 8.02984C63.9057 8.74243 64.5671 9.26384 65.3472 9.26384H66.9413C67.501 9.26384 67.9758 8.77719 67.9758 8.18626C67.9758 7.50843 67.2805 7.33463 66.5513 7.23035L65.0759 7.0044C64.0753 6.86536 62.7017 6.53514 62.7017 5.09257C62.7017 3.98024 63.5835 3.05908 64.6689 3.05908H66.263C67.4501 3.05908 68.4676 3.84119 68.8237 4.93615L67.9419 5.249C67.6875 4.53641 67.0431 4.03238 66.263 4.03238H64.6689C64.1092 4.03238 63.6344 4.50164 63.6344 5.09257C63.6344 5.83993 64.5332 5.97897 65.2455 6.08325L66.653 6.27443C67.7384 6.41347 68.9085 6.86536 68.9085 8.16888C68.9085 9.31598 68.0436 10.2198 66.9413 10.2198Z" fill="#252429"/>
<path d="M76.0958 10.2196V6.27428C76.0958 5.04028 75.1122 4.0496 73.9251 4.0496C72.738 4.0496 71.7544 5.04028 71.7544 6.27428V10.2196H70.8217V0L71.7544 0V3.99746C72.331 3.42391 73.1111 3.09369 73.9251 3.09369C75.6379 3.09369 77.0285 4.51887 77.0285 6.27428V10.2196H76.0958Z" fill="#252429"/>
<path fill-rule="evenodd" clip-rule="evenodd" d="M0.271851 3.62343L0.494498 3.09644H3.6181L3.84075 3.62343L2.4894 5.0134L3.84075 6.40337L3.84036 6.8367L2.49016 8.22047L3.84036 9.60424L3.6181 10.1316H0.494498L0.272242 9.60424L1.62244 8.22047L0.272242 6.8367L0.271851 6.40337L1.62321 5.0134L0.271851 3.62343ZM2.0563 4.56793L2.88311 3.71749H1.2295L2.0563 4.56793ZM2.0563 5.45887L0.927975 6.61944L2.0563 7.77582L3.18463 6.61944L2.0563 5.45887ZM2.0563 8.66511L1.23135 9.51057H2.88125L2.0563 8.66511Z" fill="#252429"/>
</svg>
