<svg width="10" height="10" viewBox="0 0 10 10" fill="none" xmlns="http://www.w3.org/2000/svg">
<path d="M5.40997 8.5048C3.57868 8.88723 1.74949 7.90237 1.05935 6.16389C0.404514 4.51301 0.964824 2.65247 2.38925 1.63288L2.25304 2.55284C2.2307 2.70324 2.33425 2.84288 2.48465 2.86522C2.4984 2.86737 2.51172 2.86823 2.52504 2.86823C2.65911 2.86823 2.77641 2.76983 2.79661 2.63362L3.00673 1.21561C3.01747 1.14342 2.99899 1.06995 2.9556 1.01151C2.9122 0.953069 2.84731 0.913967 2.77513 0.903226L1.35756 0.693544C1.20502 0.671199 1.06752 0.775185 1.04518 0.925149C1.02284 1.07554 1.12682 1.21519 1.27679 1.23753L1.88136 1.3269C0.392067 2.51798 -0.171243 4.55298 0.548487 6.36666C1.2231 8.06737 2.85167 9.13734 4.61937 9.1369C4.91757 9.1369 5.2205 9.10639 5.52257 9.04323C5.67124 9.01229 5.76663 8.86663 5.73569 8.71796C5.70432 8.56928 5.5578 8.47389 5.40999 8.50484L5.40997 8.5048ZM8.111 8.2066L7.45059 8.10863C8.8862 6.91018 9.41981 4.91181 8.7113 3.12728C7.92324 1.14046 5.83106 0.0146134 3.73853 0.450763C3.58985 0.481701 3.49446 0.627368 3.5254 0.776033C3.55634 0.924709 3.70201 1.02053 3.85067 0.989159C5.68162 0.60759 7.5107 1.59244 8.2004 3.33007C8.83462 4.9276 8.3306 6.72159 7.00668 7.7601L7.13559 6.89127C7.15793 6.74088 7.05438 6.60124 6.90398 6.5789C6.75445 6.55698 6.61395 6.66054 6.59161 6.8105L6.38148 8.22807C6.37074 8.30026 6.38922 8.37373 6.43262 8.43218C6.47602 8.49062 6.5409 8.52972 6.61308 8.54046L8.03021 8.75058C8.04396 8.75273 8.05728 8.75359 8.0706 8.75359C8.20467 8.75359 8.32198 8.65519 8.34217 8.51898C8.36538 8.36902 8.26139 8.22894 8.111 8.2066Z" fill="#65B042"/>
<path d="M5.40997 8.5048C3.57868 8.88723 1.74949 7.90237 1.05935 6.16389C0.404514 4.51301 0.964824 2.65247 2.38925 1.63288L2.25304 2.55284C2.2307 2.70324 2.33425 2.84288 2.48465 2.86522C2.4984 2.86737 2.51172 2.86823 2.52504 2.86823C2.65911 2.86823 2.77641 2.76983 2.79661 2.63362L3.00673 1.21561C3.01747 1.14342 2.99899 1.06995 2.9556 1.01151C2.9122 0.953069 2.84731 0.913967 2.77513 0.903226L1.35756 0.693544C1.20502 0.671199 1.06752 0.775185 1.04518 0.925149C1.02284 1.07554 1.12682 1.21519 1.27679 1.23753L1.88136 1.3269C0.392067 2.51798 -0.171243 4.55298 0.548487 6.36666C1.2231 8.06737 2.85167 9.13734 4.61937 9.1369C4.91757 9.1369 5.2205 9.10639 5.52257 9.04323C5.67124 9.01229 5.76663 8.86663 5.73569 8.71796C5.70432 8.56928 5.5578 8.47389 5.40999 8.50484L5.40997 8.5048ZM8.111 8.2066L7.45059 8.10863C8.8862 6.91018 9.41981 4.91181 8.7113 3.12728C7.92324 1.14046 5.83106 0.0146134 3.73853 0.450763C3.58985 0.481701 3.49446 0.627368 3.5254 0.776033C3.55634 0.924709 3.70201 1.02053 3.85067 0.989159C5.68162 0.60759 7.5107 1.59244 8.2004 3.33007C8.83462 4.9276 8.3306 6.72159 7.00668 7.7601L7.13559 6.89127C7.15793 6.74088 7.05438 6.60124 6.90398 6.5789C6.75445 6.55698 6.61395 6.66054 6.59161 6.8105L6.38148 8.22807C6.37074 8.30026 6.38922 8.37373 6.43262 8.43218C6.47602 8.49062 6.5409 8.52972 6.61308 8.54046L8.03021 8.75058C8.04396 8.75273 8.05728 8.75359 8.0706 8.75359C8.20467 8.75359 8.32198 8.65519 8.34217 8.51898C8.36538 8.36902 8.26139 8.22894 8.111 8.2066Z" stroke="#65B042"/>
</svg>
