<svg width="33" height="33" viewBox="0 0 33 33" fill="none" xmlns="http://www.w3.org/2000/svg">
<rect x="1.22598" y="5.38879" width="26.2878" height="26.4814" stroke="#252429" stroke-width="1.5"/>
<rect x="4.34048" y="0.510498" width="27.7878" height="27.9814" fill="#252429"/>
<g clip-path="url(#clip0)">
<path d="M17.0316 14.6917C17.0316 15.693 17.8434 16.5044 18.8447 16.5044C19.846 16.5044 20.6575 15.6931 20.6579 14.6917H17.0316ZM17.0316 14.6917C17.0316 13.6903 17.8434 12.8785 18.8447 12.8785M17.0316 14.6917L18.8447 12.8785M18.8447 12.8785C19.8465 12.8785 20.6579 13.6903 20.6579 14.6916L18.8447 12.8785ZM21.1399 14.6917V14.6916C21.1395 13.4259 20.1102 12.3965 18.8447 12.3965C17.5794 12.3965 16.5495 13.4258 16.5495 14.6917C16.5495 15.957 17.5789 16.9864 18.8447 16.9864C20.11 16.9864 21.1399 15.9571 21.1399 14.6917Z" fill="white" stroke="white" stroke-width="0.25"/>
<mask id="path-4-outside-1" maskUnits="userSpaceOnUse" x="12.6941" y="8.46912" width="12" height="12" fill="black">
<rect fill="white" x="12.6941" y="8.46912" width="12" height="12"/>
<path d="M23.8664 15.5279L22.9048 15.0856C22.917 14.956 22.9242 14.8242 22.9242 14.6914C22.9242 14.5568 22.917 14.424 22.9048 14.2931L23.8664 13.8512C23.9634 13.82 24.0168 13.7153 23.9851 13.6183L23.633 12.5343C23.6017 12.4369 23.497 12.3839 23.4001 12.4156L22.361 12.6236C22.2264 12.3952 22.07 12.1809 21.8951 11.9837L22.4149 11.0593C22.4752 10.9768 22.4566 10.8608 22.3741 10.801L21.4519 10.1307C21.3694 10.0705 21.2534 10.089 21.1936 10.172L20.4753 10.951C20.2356 10.8463 19.9837 10.7643 19.7226 10.7067L19.5994 9.65355C19.5989 9.55204 19.5164 9.46912 19.414 9.46912H18.2743C18.1724 9.46912 18.0894 9.55204 18.0894 9.65401L17.9662 10.7072C17.7047 10.7643 17.4532 10.8467 17.2134 10.9514L16.4952 10.172C16.4349 10.0895 16.3198 10.0709 16.2369 10.1312L15.3147 10.801C15.2318 10.8612 15.2136 10.9768 15.2734 11.0593L15.7928 11.9837C15.6174 12.1809 15.4615 12.3952 15.3269 12.6236L14.2883 12.4151C14.1913 12.3839 14.0871 12.4369 14.0554 12.5339L13.7032 13.6178C13.6715 13.7148 13.725 13.8191 13.822 13.8508L14.784 14.2926C14.7713 14.424 14.7646 14.5563 14.7646 14.6914C14.7646 14.8242 14.7713 14.956 14.784 15.0856L13.8224 15.5275C13.7254 15.5587 13.672 15.6634 13.7037 15.7604L14.0558 16.8448C14.0875 16.9423 14.1918 16.9953 14.2887 16.9636L15.3256 16.756C15.4602 16.9858 15.617 17.2001 15.7923 17.3981L15.2744 18.3199C15.2145 18.4028 15.2327 18.5184 15.3156 18.5782L16.2378 19.2484C16.3203 19.3087 16.4358 19.2901 16.4961 19.2072L17.2121 18.4309C17.4527 18.536 17.7056 18.6185 17.968 18.6761L18.0903 19.7247C18.0894 19.8271 18.1724 19.91 18.2743 19.91H19.4145C19.5164 19.9105 19.5994 19.8271 19.5994 19.7251L19.7222 18.6761C19.9846 18.6185 20.2374 18.5356 20.4785 18.4309L21.1941 19.2072C21.2543 19.2897 21.3699 19.3082 21.4524 19.2484L22.3746 18.5786C22.4575 18.5188 22.4756 18.4028 22.4153 18.3203L21.8974 17.3981C22.0728 17.2006 22.2291 16.9853 22.3637 16.756L23.4005 16.964C23.4975 16.9953 23.6017 16.9423 23.6335 16.8453L23.9856 15.7613C24.0173 15.6639 23.9638 15.5592 23.8664 15.5279L23.8664 15.5279ZM23.4259 16.7325L22.2472 16.4959L22.1634 16.6387C22.037 16.8539 21.8888 17.0578 21.7234 17.2441L21.6137 17.3678L22.2024 18.4164L21.35 19.0355L20.5361 18.1527L20.3847 18.2188C20.155 18.319 19.9152 18.3969 19.6719 18.4504L19.5106 18.4858L19.371 19.678H18.3174L18.1783 18.4853L18.0165 18.4499C17.7727 18.3965 17.5325 18.3185 17.3037 18.2184L17.1523 18.1522L16.3384 19.035L15.486 18.4155L16.0747 17.3673L15.965 17.2436C15.7992 17.0574 15.6514 16.8535 15.525 16.6382L15.4412 16.4954L14.2625 16.7315L13.9371 15.7296L15.0302 15.2275L15.0143 15.0634C15.0021 14.9375 14.9962 14.8124 14.9962 14.6914C14.9962 14.5681 15.0025 14.4417 15.0147 14.3153L15.0306 14.1508L13.9371 13.6487L14.2625 12.6467L15.443 12.8833L15.5268 12.741C15.6533 12.5266 15.801 12.3236 15.9664 12.1374L16.0761 12.0137L15.4856 10.9628L16.338 10.3433L17.1542 11.2292L17.3055 11.1631C17.5335 11.0638 17.7723 10.9863 18.0156 10.9329L18.177 10.8975L18.3174 9.70121H19.3711L19.5111 10.8984L19.6729 10.9338C19.9167 10.9873 20.155 11.0647 20.3825 11.164L20.5339 11.2302L21.3505 10.3442L22.2029 10.9637L21.6124 12.0146L21.7221 12.1383C21.8875 12.3245 22.0352 12.5276 22.1612 12.7419L22.245 12.8842L23.426 12.6481L23.7519 13.65L22.6584 14.1522L22.6742 14.3162C22.6865 14.4445 22.6928 14.5709 22.6928 14.6923C22.6928 14.8115 22.6865 14.9366 22.6747 15.0644L22.6588 15.2284L23.7523 15.731L23.4259 16.7325Z"/>
</mask>
<path d="M23.8664 15.5279L22.9048 15.0856C22.917 14.956 22.9242 14.8242 22.9242 14.6914C22.9242 14.5568 22.917 14.424 22.9048 14.2931L23.8664 13.8512C23.9634 13.82 24.0168 13.7153 23.9851 13.6183L23.633 12.5343C23.6017 12.4369 23.497 12.3839 23.4001 12.4156L22.361 12.6236C22.2264 12.3952 22.07 12.1809 21.8951 11.9837L22.4149 11.0593C22.4752 10.9768 22.4566 10.8608 22.3741 10.801L21.4519 10.1307C21.3694 10.0705 21.2534 10.089 21.1936 10.172L20.4753 10.951C20.2356 10.8463 19.9837 10.7643 19.7226 10.7067L19.5994 9.65355C19.5989 9.55204 19.5164 9.46912 19.414 9.46912H18.2743C18.1724 9.46912 18.0894 9.55204 18.0894 9.65401L17.9662 10.7072C17.7047 10.7643 17.4532 10.8467 17.2134 10.9514L16.4952 10.172C16.4349 10.0895 16.3198 10.0709 16.2369 10.1312L15.3147 10.801C15.2318 10.8612 15.2136 10.9768 15.2734 11.0593L15.7928 11.9837C15.6174 12.1809 15.4615 12.3952 15.3269 12.6236L14.2883 12.4151C14.1913 12.3839 14.0871 12.4369 14.0554 12.5339L13.7032 13.6178C13.6715 13.7148 13.725 13.8191 13.822 13.8508L14.784 14.2926C14.7713 14.424 14.7646 14.5563 14.7646 14.6914C14.7646 14.8242 14.7713 14.956 14.784 15.0856L13.8224 15.5275C13.7254 15.5587 13.672 15.6634 13.7037 15.7604L14.0558 16.8448C14.0875 16.9423 14.1918 16.9953 14.2887 16.9636L15.3256 16.756C15.4602 16.9858 15.617 17.2001 15.7923 17.3981L15.2744 18.3199C15.2145 18.4028 15.2327 18.5184 15.3156 18.5782L16.2378 19.2484C16.3203 19.3087 16.4358 19.2901 16.4961 19.2072L17.2121 18.4309C17.4527 18.536 17.7056 18.6185 17.968 18.6761L18.0903 19.7247C18.0894 19.8271 18.1724 19.91 18.2743 19.91H19.4145C19.5164 19.9105 19.5994 19.8271 19.5994 19.7251L19.7222 18.6761C19.9846 18.6185 20.2374 18.5356 20.4785 18.4309L21.1941 19.2072C21.2543 19.2897 21.3699 19.3082 21.4524 19.2484L22.3746 18.5786C22.4575 18.5188 22.4756 18.4028 22.4153 18.3203L21.8974 17.3981C22.0728 17.2006 22.2291 16.9853 22.3637 16.756L23.4005 16.964C23.4975 16.9953 23.6017 16.9423 23.6335 16.8453L23.9856 15.7613C24.0173 15.6639 23.9638 15.5592 23.8664 15.5279L23.8664 15.5279ZM23.4259 16.7325L22.2472 16.4959L22.1634 16.6387C22.037 16.8539 21.8888 17.0578 21.7234 17.2441L21.6137 17.3678L22.2024 18.4164L21.35 19.0355L20.5361 18.1527L20.3847 18.2188C20.155 18.319 19.9152 18.3969 19.6719 18.4504L19.5106 18.4858L19.371 19.678H18.3174L18.1783 18.4853L18.0165 18.4499C17.7727 18.3965 17.5325 18.3185 17.3037 18.2184L17.1523 18.1522L16.3384 19.035L15.486 18.4155L16.0747 17.3673L15.965 17.2436C15.7992 17.0574 15.6514 16.8535 15.525 16.6382L15.4412 16.4954L14.2625 16.7315L13.9371 15.7296L15.0302 15.2275L15.0143 15.0634C15.0021 14.9375 14.9962 14.8124 14.9962 14.6914C14.9962 14.5681 15.0025 14.4417 15.0147 14.3153L15.0306 14.1508L13.9371 13.6487L14.2625 12.6467L15.443 12.8833L15.5268 12.741C15.6533 12.5266 15.801 12.3236 15.9664 12.1374L16.0761 12.0137L15.4856 10.9628L16.338 10.3433L17.1542 11.2292L17.3055 11.1631C17.5335 11.0638 17.7723 10.9863 18.0156 10.9329L18.177 10.8975L18.3174 9.70121H19.3711L19.5111 10.8984L19.6729 10.9338C19.9167 10.9873 20.155 11.0647 20.3825 11.164L20.5339 11.2302L21.3505 10.3442L22.2029 10.9637L21.6124 12.0146L21.7221 12.1383C21.8875 12.3245 22.0352 12.5276 22.1612 12.7419L22.245 12.8842L23.426 12.6481L23.7519 13.65L22.6584 14.1522L22.6742 14.3162C22.6865 14.4445 22.6928 14.5709 22.6928 14.6923C22.6928 14.8115 22.6865 14.9366 22.6747 15.0644L22.6588 15.2284L23.7523 15.731L23.4259 16.7325Z" fill="white"/>
<path d="M23.8664 15.5279L22.9048 15.0856C22.917 14.956 22.9242 14.8242 22.9242 14.6914C22.9242 14.5568 22.917 14.424 22.9048 14.2931L23.8664 13.8512C23.9634 13.82 24.0168 13.7153 23.9851 13.6183L23.633 12.5343C23.6017 12.4369 23.497 12.3839 23.4001 12.4156L22.361 12.6236C22.2264 12.3952 22.07 12.1809 21.8951 11.9837L22.4149 11.0593C22.4752 10.9768 22.4566 10.8608 22.3741 10.801L21.4519 10.1307C21.3694 10.0705 21.2534 10.089 21.1936 10.172L20.4753 10.951C20.2356 10.8463 19.9837 10.7643 19.7226 10.7067L19.5994 9.65355C19.5989 9.55204 19.5164 9.46912 19.414 9.46912H18.2743C18.1724 9.46912 18.0894 9.55204 18.0894 9.65401L17.9662 10.7072C17.7047 10.7643 17.4532 10.8467 17.2134 10.9514L16.4952 10.172C16.4349 10.0895 16.3198 10.0709 16.2369 10.1312L15.3147 10.801C15.2318 10.8612 15.2136 10.9768 15.2734 11.0593L15.7928 11.9837C15.6174 12.1809 15.4615 12.3952 15.3269 12.6236L14.2883 12.4151C14.1913 12.3839 14.0871 12.4369 14.0554 12.5339L13.7032 13.6178C13.6715 13.7148 13.725 13.8191 13.822 13.8508L14.784 14.2926C14.7713 14.424 14.7646 14.5563 14.7646 14.6914C14.7646 14.8242 14.7713 14.956 14.784 15.0856L13.8224 15.5275C13.7254 15.5587 13.672 15.6634 13.7037 15.7604L14.0558 16.8448C14.0875 16.9423 14.1918 16.9953 14.2887 16.9636L15.3256 16.756C15.4602 16.9858 15.617 17.2001 15.7923 17.3981L15.2744 18.3199C15.2145 18.4028 15.2327 18.5184 15.3156 18.5782L16.2378 19.2484C16.3203 19.3087 16.4358 19.2901 16.4961 19.2072L17.2121 18.4309C17.4527 18.536 17.7056 18.6185 17.968 18.6761L18.0903 19.7247C18.0894 19.8271 18.1724 19.91 18.2743 19.91H19.4145C19.5164 19.9105 19.5994 19.8271 19.5994 19.7251L19.7222 18.6761C19.9846 18.6185 20.2374 18.5356 20.4785 18.4309L21.1941 19.2072C21.2543 19.2897 21.3699 19.3082 21.4524 19.2484L22.3746 18.5786C22.4575 18.5188 22.4756 18.4028 22.4153 18.3203L21.8974 17.3981C22.0728 17.2006 22.2291 16.9853 22.3637 16.756L23.4005 16.964C23.4975 16.9953 23.6017 16.9423 23.6335 16.8453L23.9856 15.7613C24.0173 15.6639 23.9638 15.5592 23.8664 15.5279L23.8664 15.5279ZM23.4259 16.7325L22.2472 16.4959L22.1634 16.6387C22.037 16.8539 21.8888 17.0578 21.7234 17.2441L21.6137 17.3678L22.2024 18.4164L21.35 19.0355L20.5361 18.1527L20.3847 18.2188C20.155 18.319 19.9152 18.3969 19.6719 18.4504L19.5106 18.4858L19.371 19.678H18.3174L18.1783 18.4853L18.0165 18.4499C17.7727 18.3965 17.5325 18.3185 17.3037 18.2184L17.1523 18.1522L16.3384 19.035L15.486 18.4155L16.0747 17.3673L15.965 17.2436C15.7992 17.0574 15.6514 16.8535 15.525 16.6382L15.4412 16.4954L14.2625 16.7315L13.9371 15.7296L15.0302 15.2275L15.0143 15.0634C15.0021 14.9375 14.9962 14.8124 14.9962 14.6914C14.9962 14.5681 15.0025 14.4417 15.0147 14.3153L15.0306 14.1508L13.9371 13.6487L14.2625 12.6467L15.443 12.8833L15.5268 12.741C15.6533 12.5266 15.801 12.3236 15.9664 12.1374L16.0761 12.0137L15.4856 10.9628L16.338 10.3433L17.1542 11.2292L17.3055 11.1631C17.5335 11.0638 17.7723 10.9863 18.0156 10.9329L18.177 10.8975L18.3174 9.70121H19.3711L19.5111 10.8984L19.6729 10.9338C19.9167 10.9873 20.155 11.0647 20.3825 11.164L20.5339 11.2302L21.3505 10.3442L22.2029 10.9637L21.6124 12.0146L21.7221 12.1383C21.8875 12.3245 22.0352 12.5276 22.1612 12.7419L22.245 12.8842L23.426 12.6481L23.7519 13.65L22.6584 14.1522L22.6742 14.3162C22.6865 14.4445 22.6928 14.5709 22.6928 14.6923C22.6928 14.8115 22.6865 14.9366 22.6747 15.0644L22.6588 15.2284L23.7523 15.731L23.4259 16.7325Z" stroke="white" stroke-width="0.5" mask="url(#path-4-outside-1)"/>
</g>
<path d="M8.97523 9.17769L18.522 3.66585L28.0688 9.17769V20.2014L18.522 25.7132L8.97523 20.2014V9.17769Z" stroke="white"/>
<defs>
<clipPath id="clip0">
<rect width="11.601" height="11.601" fill="white" transform="translate(13.0438 8.88904)"/>
</clipPath>
</defs>
</svg>
