<svg width="104" height="40" viewBox="0 0 104 40" fill="none" xmlns="http://www.w3.org/2000/svg">
<path d="M0.5 35.8731V4.41748H95.5461V39.3675H0.5V35.8731Z" fill="#F2F2F2" stroke="#BCBCBD"/>
<path d="M4.3916 31.9556V0.5H98.8892V35.4501H4.3916V31.9556Z" fill="#BCBCBD" stroke="#BCBCBD"/>
<path d="M17.3701 23.1421H16.3604L13.3257 17.2983L13.3096 23.1421H12.3052V15.3218H13.3149L16.3496 21.1548L16.3657 15.3218H17.3701V23.1421ZM23.3804 19.5273H20.1147V22.2988H23.9229V23.1421H19.1211V15.3218H23.8745V16.1704H20.1147V18.6841H23.3804V19.5273ZM28.1069 18.3887L29.7935 15.3218H30.9644L28.6924 19.1997L31.0181 23.1421H29.8579L28.1284 20.0161L26.3936 23.1421H25.2173L27.5483 19.1997L25.2764 15.3218H26.4419L28.1069 18.3887ZM37.5654 16.1704H35.1484V23.1421H34.1816V16.1704H31.7646V15.3218H37.5654V16.1704Z" fill="white"/>
</svg>
