<svg width="11" height="11" viewBox="0 0 11 11" fill="none" xmlns="http://www.w3.org/2000/svg">
<path d="M10.5721 3.13917V3.11417C10.5673 3.11417 10.5204 3.11437 10.4376 3.11472C10.2244 3.11562 9.77253 3.11752 9.18431 3.11966V1.16992C9.18431 1.102 9.15487 1.03698 9.10308 0.989499C9.05136 0.942081 8.98149 0.915895 8.90946 0.915895H2.08243C1.64516 0.890379 1.21567 1.03375 0.898041 1.31181C0.580193 1.59007 0.403802 1.97804 0.411848 2.38146V7.8327C0.411848 9.00733 0.676846 9.83004 1.20819 10.2679C1.42882 10.46 1.71842 10.5702 2.02198 10.5781L2.02198 10.5781H2.02262C2.04111 10.5781 2.05606 10.5777 2.06767 10.5768H10.5736C10.6456 10.5768 10.7155 10.5506 10.7672 10.5032C10.819 10.4557 10.8485 10.3907 10.8485 10.3228V3.36866C10.8485 3.30021 10.8185 3.23522 10.7668 3.18781L10.7689 3.18544L10.7621 3.18361C10.7107 3.13792 10.6422 3.11326 10.5717 3.11417L10.5721 3.13917ZM10.5721 3.13917C10.6386 3.13831 10.7029 3.16237 10.7497 3.2062L9.18431 3.14466C9.77294 3.14252 10.2249 3.14061 10.438 3.13971C10.5206 3.13936 10.5673 3.13917 10.5721 3.13917ZM1.5618 9.87825L1.56177 9.87828C1.68593 9.99623 1.85558 10.0653 2.03515 10.0695L1.5618 9.87825ZM1.5618 9.87825L1.5608 9.8774M1.5618 9.87825L1.5608 9.8774M1.5608 9.8774C1.29105 9.64684 0.961585 9.10454 0.961585 7.83258V3.20714C1.32418 3.44744 1.92312 3.64498 2.91383 3.64498C4.80743 3.64498 9.16019 3.62804 10.2983 3.62359L10.2987 10.0686M1.5608 9.8774L10.2987 10.0686M10.2987 10.0686L2.03533 10.0695L10.2987 10.0686ZM0.962249 2.37532L0.961757 2.36922C0.959721 2.10632 1.0778 1.85452 1.28827 1.67445C1.50145 1.49247 1.78873 1.40157 2.07961 1.42429L2.0795 1.4257L2.08481 1.42434H8.63457V3.12156C6.84205 3.12799 4.25828 3.13651 2.91409 3.13651C1.97352 3.13651 1.48615 2.94986 1.23416 2.76272C0.983023 2.57622 0.963225 2.3874 0.962249 2.37532Z" fill="#65B042" stroke="#65B042" stroke-width="0.05"/>
</svg>
